<svg aria-hidden="true" style="position: absolute; width: 0; height: 0; overflow: hidden;" version="1.1" xmlns="http://www.w3.org/2000/svg" xmlns:xlink="http://www.w3.org/1999/xlink">
<defs>
<!-- logo -->
<symbol id="logo" viewBox="0 0 105 32">
<path fill="#fff" style="fill: var(--color1, #fff)" d="M6.48 31.6h-6.48v-31.6h7.24c1.493 0 2.707 0.080 3.64 0.24 0.96 0.133 1.707 0.427 2.24 0.88s0.893 1.107 1.080 1.96c0.213 0.827 0.32 1.947 0.32 3.36v3.28c0 0.827-0.093 1.507-0.28 2.040s-0.427 0.96-0.72 1.28c-0.267 0.32-0.56 0.56-0.88 0.72-0.32 0.133-0.613 0.227-0.88 0.28v0.16c0.4 0.107 0.76 0.267 1.080 0.48 0.347 0.187 0.64 0.48 0.88 0.88s0.427 0.933 0.56 1.6c0.16 0.64 0.24 1.467 0.24 2.48v11.96h-6.52v-14c0-0.347-0.040-0.573-0.12-0.68-0.080-0.133-0.293-0.2-0.64-0.2h-0.76v14.88zM6.48 11.64h0.76c0.347 0 0.56-0.053 0.64-0.16 0.080-0.133 0.12-0.373 0.12-0.72v-4.32c0-0.347-0.040-0.573-0.12-0.68-0.080-0.133-0.293-0.2-0.64-0.2h-0.76v6.080zM29.702 26.92c0 1.12-0.093 2.013-0.28 2.68-0.16 0.667-0.48 1.187-0.96 1.56-0.453 0.347-1.093 0.573-1.92 0.68-0.8 0.107-1.853 0.16-3.16 0.16-1.28 0-2.333-0.053-3.16-0.16s-1.467-0.333-1.92-0.68c-0.453-0.373-0.773-0.893-0.96-1.56-0.16-0.667-0.24-1.56-0.24-2.68v-14.6c0-1.12 0.080-2.013 0.24-2.68 0.187-0.667 0.507-1.173 0.96-1.52 0.453-0.373 1.093-0.613 1.92-0.72s1.88-0.16 3.16-0.16c1.307 0 2.36 0.053 3.16 0.16 0.827 0.107 1.467 0.347 1.92 0.72 0.48 0.347 0.8 0.853 0.96 1.52 0.187 0.667 0.28 1.56 0.28 2.68v14.6zM22.662 25.8c0 0.347 0.040 0.587 0.12 0.72 0.080 0.107 0.28 0.16 0.6 0.16 0.347 0 0.56-0.053 0.64-0.16 0.080-0.133 0.12-0.373 0.12-0.72v-12.36c0-0.347-0.040-0.573-0.12-0.68-0.080-0.133-0.293-0.2-0.64-0.2-0.32 0-0.52 0.067-0.6 0.2-0.080 0.107-0.12 0.333-0.12 0.68v12.36zM38.298 0v8.72c0.347-0.48 0.773-0.813 1.28-1 0.533-0.187 1.187-0.28 1.96-0.28s1.4 0.093 1.88 0.28c0.48 0.16 0.84 0.427 1.080 0.8 0.267 0.373 0.44 0.88 0.52 1.52 0.107 0.613 0.16 1.373 0.16 2.28v14.6c0 0.933-0.053 1.72-0.16 2.36-0.080 0.613-0.253 1.107-0.52 1.48s-0.653 0.64-1.16 0.8c-0.507 0.16-1.16 0.24-1.96 0.24-0.907 0-1.64-0.093-2.2-0.28-0.56-0.213-0.987-0.547-1.28-1v1.080h-5.32v-31.6h5.72zM39.618 13.44c0-0.32-0.040-0.547-0.12-0.68-0.053-0.133-0.227-0.2-0.52-0.2-0.267 0-0.467 0.053-0.6 0.16-0.107 0.080-0.187 0.213-0.24 0.4v13c0.053 0.187 0.133 0.333 0.24 0.44 0.133 0.080 0.333 0.12 0.6 0.12 0.293 0 0.467-0.067 0.52-0.2 0.080-0.133 0.12-0.36 0.12-0.68v-12.36zM53.807 4.16h-5.68v-4.16h5.68v4.16zM53.807 31.6h-5.68v-23.96h5.68v23.96zM70.071 31.6h-5.76v-18.16c0-0.32-0.040-0.547-0.12-0.68-0.054-0.133-0.227-0.2-0.52-0.2-0.267 0-0.467 0.053-0.6 0.16-0.107 0.080-0.2 0.213-0.28 0.4v18.48h-5.72v-23.96h5.32v1.080c0.293-0.453 0.72-0.773 1.28-0.96 0.56-0.213 1.293-0.32 2.2-0.32 0.8 0 1.466 0.080 2 0.24 0.56 0.16 1 0.427 1.32 0.8s0.546 0.88 0.68 1.52c0.133 0.613 0.2 1.387 0.2 2.32v19.28zM78.925 31.6h-5.8v-5.64h5.8v5.64zM104.573 0l-3.28 31.6h-8.16l-1.080-22.92h-0.16l-1.32 22.92h-8.28l-2.44-31.6h6.52l0.68 22.16h0.16l0.96-22.16h8l0.68 22.16h0.16l1-22.16h6.56z"></path>
</symbol>
<!-- numbers -->
<symbol id="number-1" viewBox="0 0 45 32">
<path d="M11.758 0.29c1.956 0 3.641 0.451 5.056 1.354 1.444 0.903 2.633 2.122 3.566 3.656 0.933 1.505 1.625 3.19 2.076 5.056 0.481 1.866 0.722 3.777 0.722 5.733 0 1.926-0.241 3.837-0.722 5.733-0.451 1.866-1.144 3.566-2.076 5.101-0.933 1.505-2.122 2.708-3.566 3.611-1.414 0.903-3.1 1.354-5.056 1.354-1.926 0-3.611-0.451-5.056-1.354s-2.633-2.106-3.566-3.611c-0.933-1.535-1.64-3.235-2.122-5.101-0.451-1.896-0.677-3.807-0.677-5.733 0-1.956 0.226-3.867 0.677-5.733 0.481-1.866 1.189-3.551 2.122-5.056 0.933-1.535 2.122-2.753 3.566-3.656s3.13-1.354 5.056-1.354zM11.758 4.262c-1.234 0-2.332 0.346-3.295 1.038-0.933 0.662-1.715 1.565-2.347 2.708-0.632 1.113-1.113 2.377-1.444 3.792-0.331 1.384-0.497 2.814-0.497 4.288s0.165 2.919 0.497 4.333c0.331 1.384 0.812 2.648 1.444 3.792 0.632 1.113 1.414 2.016 2.347 2.708 0.963 0.662 2.061 0.993 3.295 0.993s2.317-0.331 3.25-0.993c0.963-0.692 1.76-1.595 2.392-2.708 0.632-1.143 1.113-2.407 1.444-3.792 0.331-1.414 0.497-2.859 0.497-4.333s-0.166-2.904-0.497-4.288c-0.331-1.414-0.812-2.678-1.444-3.792-0.632-1.143-1.429-2.046-2.392-2.708-0.933-0.692-2.016-1.038-3.25-1.038zM45.297 27.599v3.611h-16.385v-3.611h6.003v-19.681c-0.903 0.782-1.836 1.324-2.799 1.625s-1.926 0.542-2.889 0.722v-3.882c1.745-0.451 3.265-1.189 4.559-2.212s2.362-2.091 3.205-3.205h1.986v26.632h6.319z"></path>
</symbol>
<symbol id="number-2" viewBox="0 0 46 32">
<path d="M11.758 0.29c1.956 0 3.641 0.451 5.056 1.354 1.444 0.903 2.633 2.122 3.566 3.656 0.933 1.505 1.625 3.19 2.076 5.056 0.481 1.866 0.722 3.777 0.722 5.733 0 1.926-0.241 3.837-0.722 5.733-0.451 1.866-1.144 3.566-2.076 5.101-0.933 1.505-2.122 2.708-3.566 3.611-1.414 0.903-3.1 1.354-5.056 1.354-1.926 0-3.611-0.451-5.056-1.354s-2.633-2.106-3.566-3.611c-0.933-1.535-1.64-3.235-2.122-5.101-0.451-1.896-0.677-3.807-0.677-5.733 0-1.956 0.226-3.867 0.677-5.733 0.481-1.866 1.189-3.551 2.122-5.056 0.933-1.535 2.122-2.753 3.566-3.656s3.13-1.354 5.056-1.354zM11.758 4.262c-1.234 0-2.332 0.346-3.295 1.038-0.933 0.662-1.715 1.565-2.347 2.708-0.632 1.113-1.113 2.377-1.444 3.792-0.331 1.384-0.497 2.814-0.497 4.288s0.165 2.919 0.497 4.333c0.331 1.384 0.812 2.648 1.444 3.792 0.632 1.113 1.414 2.016 2.347 2.708 0.963 0.662 2.061 0.993 3.295 0.993s2.317-0.331 3.25-0.993c0.963-0.692 1.76-1.595 2.392-2.708 0.632-1.143 1.113-2.407 1.444-3.792 0.331-1.414 0.497-2.859 0.497-4.333s-0.166-2.904-0.497-4.288c-0.331-1.414-0.812-2.678-1.444-3.792-0.632-1.143-1.429-2.046-2.392-2.708-0.933-0.692-2.016-1.038-3.25-1.038zM35.592 0.29c1.986 0 3.731 0.361 5.236 1.083s2.678 1.76 3.521 3.115c0.843 1.324 1.264 2.904 1.264 4.74 0 1.956-0.497 3.822-1.489 5.597-0.993 1.745-2.407 3.611-4.243 5.597-1.805 1.986-3.957 4.333-6.455 7.042h12.413v3.747h-18.958v-1.625c3.069-3.431 5.718-6.335 7.944-8.712 2.227-2.407 3.942-4.469 5.146-6.184s1.805-3.235 1.805-4.559c0-1.956-0.647-3.415-1.941-4.378-1.264-0.993-2.799-1.49-4.604-1.49-1.475 0-2.874 0.376-4.198 1.128-1.294 0.722-2.377 1.475-3.25 2.257v-4.243c0.782-0.722 1.851-1.414 3.205-2.076 1.354-0.692 2.889-1.038 4.604-1.038z"></path>
</symbol>
<symbol id="number-3" viewBox="0 0 45 32">
<path d="M11.758 0.29c1.956 0 3.641 0.451 5.056 1.354 1.444 0.903 2.633 2.122 3.566 3.656 0.933 1.505 1.625 3.19 2.076 5.056 0.481 1.866 0.722 3.777 0.722 5.733 0 1.926-0.241 3.837-0.722 5.733-0.451 1.866-1.144 3.566-2.076 5.101-0.933 1.505-2.122 2.708-3.566 3.611-1.414 0.903-3.1 1.354-5.056 1.354-1.926 0-3.611-0.451-5.056-1.354s-2.633-2.106-3.566-3.611c-0.933-1.535-1.64-3.235-2.122-5.101-0.451-1.896-0.677-3.807-0.677-5.733 0-1.956 0.226-3.867 0.677-5.733 0.481-1.866 1.189-3.551 2.122-5.056 0.933-1.535 2.122-2.753 3.566-3.656s3.13-1.354 5.056-1.354zM11.758 4.262c-1.234 0-2.332 0.346-3.295 1.038-0.933 0.662-1.715 1.565-2.347 2.708-0.632 1.113-1.113 2.377-1.444 3.792-0.331 1.384-0.497 2.814-0.497 4.288s0.165 2.919 0.497 4.333c0.331 1.384 0.812 2.648 1.444 3.792 0.632 1.113 1.414 2.016 2.347 2.708 0.963 0.662 2.061 0.993 3.295 0.993s2.317-0.331 3.25-0.993c0.963-0.692 1.76-1.595 2.392-2.708 0.632-1.143 1.113-2.407 1.444-3.792 0.331-1.414 0.497-2.859 0.497-4.333s-0.166-2.904-0.497-4.288c-0.331-1.414-0.812-2.678-1.444-3.792-0.632-1.143-1.429-2.046-2.392-2.708-0.933-0.692-2.016-1.038-3.25-1.038zM35.14 0.29c1.986 0 3.747 0.376 5.281 1.128 1.565 0.752 2.784 1.791 3.656 3.115 0.903 1.294 1.354 2.784 1.354 4.469 0 1.354-0.346 2.498-1.038 3.431-0.662 0.933-1.459 1.67-2.392 2.212s-1.79 0.918-2.573 1.128c0.782 0.211 1.64 0.632 2.573 1.264 0.933 0.602 1.73 1.399 2.392 2.392 0.692 0.993 1.038 2.167 1.038 3.521 0 1.685-0.436 3.205-1.309 4.559-0.843 1.354-2.031 2.422-3.566 3.205s-3.295 1.174-5.281 1.174c-1.775 0-3.37-0.301-4.785-0.903-1.384-0.602-2.468-1.264-3.25-1.986v-4.469c0.692 0.482 1.414 1.008 2.167 1.58s1.61 1.068 2.573 1.49 2.091 0.632 3.385 0.632c1.806 0 3.295-0.482 4.469-1.444s1.76-2.317 1.76-4.063c0-0.993-0.316-1.881-0.948-2.663-0.602-0.782-1.399-1.399-2.392-1.851-0.963-0.451-2.001-0.677-3.115-0.677h-2.708v-3.611h2.708c1.896 0 3.446-0.406 4.649-1.219 1.204-0.843 1.805-2.001 1.805-3.476 0-1.053-0.301-1.971-0.903-2.753s-1.399-1.399-2.392-1.851c-0.993-0.451-2.091-0.677-3.295-0.677-1.565 0-2.889 0.346-3.972 1.038-1.053 0.662-2.016 1.429-2.889 2.302v-4.469c0.782-0.722 1.791-1.324 3.024-1.806 1.264-0.481 2.588-0.722 3.972-0.722z"></path>
</symbol>
<!-- skills -->
<symbol id="square" viewBox="0 0 32 32">
<path fill="#5221e6" style="fill: var(--color1, #5221e6)" d="M30.222 23.111v7.111h-12.444v-7.111h12.444zM30.222 1.778v14.222h-12.444v-14.222h12.444zM10.667 16h-8.889v14.222h8.889v-14.222zM10.667 1.778v7.111h-8.889v-7.111h8.889zM17.778 0c-0.982 0-1.778 0.796-1.778 1.778v14.222c0 0.982 0.796 1.778 1.778 1.778h12.444c0.982 0 1.778-0.796 1.778-1.778v-14.222c0-0.982-0.796-1.778-1.778-1.778h-12.444zM17.778 21.333c-0.982 0-1.778 0.796-1.778 1.778v7.111c0 0.982 0.796 1.778 1.778 1.778h12.444c0.982 0 1.778-0.796 1.778-1.778v-7.111c0-0.982-0.796-1.778-1.778-1.778h-12.444zM0 16c0-0.982 0.796-1.778 1.778-1.778h8.889c0.982 0 1.778 0.796 1.778 1.778v14.222c0 0.982-0.796 1.778-1.778 1.778h-8.889c-0.982 0-1.778-0.796-1.778-1.778v-14.222zM1.778 0c-0.982 0-1.778 0.796-1.778 1.778v7.111c0 0.982 0.796 1.778 1.778 1.778h8.889c0.982 0 1.778-0.796 1.778-1.778v-7.111c0-0.982-0.796-1.778-1.778-1.778h-8.889z"></path>
</symbol>
<symbol id="pen" viewBox="0 0 32 32">
<path fill="#5221e6" style="fill: var(--color1, #5221e6)" d="M17.221 1.2l13.578 13.578 1.2-1.2-13.578-13.578-1.2 1.2z"></path>
<path fill="#5221e6" style="fill: var(--color1, #5221e6)" d="M19.234 7.601c-0.736-0.736-1.846-0.95-2.803-0.54l-9.423 4.039c-1.113 0.477-1.971 1.406-2.352 2.56-0.893 2.709-2.048 6.287-2.981 9.346-0.466 1.529-0.879 2.934-1.175 4.039-0.148 0.552-0.27 1.036-0.355 1.427-0.079 0.364-0.144 0.723-0.144 0.981v0.352l2.194 2.194h0.352c0.259 0 0.617-0.065 0.981-0.144 0.391-0.085 0.875-0.206 1.427-0.355 1.105-0.297 2.51-0.709 4.039-1.175 3.059-0.933 6.638-2.088 9.346-2.981 1.154-0.381 2.082-1.239 2.56-2.352l4.039-9.423c0.41-0.957 0.196-2.067-0.54-2.803l-5.164-5.164zM17.099 8.622c0.319-0.137 0.689-0.065 0.934 0.18l5.164 5.164c0.245 0.245 0.317 0.615 0.18 0.934l-4.039 9.424c-0.287 0.669-0.843 1.181-1.531 1.408-2.702 0.891-6.268 2.042-9.31 2.97-1.522 0.464-2.906 0.87-3.984 1.16-0.539 0.145-0.994 0.258-1.347 0.335-0.075 0.016-0.143 0.030-0.207 0.043l8.671-8.672c0.946 0.452 2.114 0.286 2.898-0.498 0.994-0.994 0.994-2.606 0-3.6s-2.606-0.994-3.6 0c-0.784 0.784-0.95 1.952-0.498 2.898l-8.672 8.672c0.012-0.063 0.027-0.132 0.043-0.207 0.077-0.353 0.19-0.808 0.335-1.347 0.289-1.078 0.696-2.462 1.16-3.984 0.928-3.042 2.079-6.608 2.97-9.31 0.227-0.688 0.739-1.244 1.408-1.531l9.424-4.039z"></path>
</symbol>
<symbol id="circle" viewBox="0 0 32 32">
<path fill="none" stroke="#5221e6" style="stroke: var(--color1, #5221e6)" stroke-linejoin="miter" stroke-linecap="butt" stroke-miterlimit="4" stroke-width="2" d="M31 16c0 8.284-6.716 15-15 15s-15-6.716-15-15c0-8.284 6.716-15 15-15s15 6.716 15 15z"></path>
<path fill="#5221e6" style="fill: var(--color1, #5221e6)" d="M21 16l-7.5 4.33v-8.66l7.5 4.33z"></path>
</symbol>
<symbol id="camera" viewBox="0 0 32 32">
<path fill="#5221e6" style="fill: var(--color1, #5221e6)" d="M29.828 8.236h-2.928l-0.673-3.034c-0.287-1.296-1.417-2.201-2.746-2.201h-10.164c-1.33 0-2.459 0.905-2.746 2.201l-0.673 3.034h-0.695v-1.295c0-0.73-0.595-1.323-1.325-1.323h-4.286c-0.731 0-1.325 0.594-1.325 1.323v1.295h-0.094c-1.198 0-2.172 0.973-2.172 2.169v14.688c0 1.196 0.975 2.169 2.172 2.169h10.075c1.773 1.147 3.886 1.814 6.152 1.814s4.378-0.667 6.151-1.814h5.278c1.198 0 2.172-0.973 2.172-2.169v-14.688c0-1.196-0.974-2.169-2.172-2.169zM11.79 5.471c0.16-0.72 0.787-1.223 1.526-1.223h10.164c0.739 0 1.366 0.503 1.526 1.223l0.613 2.765h-1.070c-1.773-1.147-3.886-1.814-6.151-1.814s-4.378 0.667-6.152 1.814h-1.070l0.613-2.765zM3.516 6.941c0-0.042 0.034-0.075 0.075-0.075h4.286c0.042 0 0.075 0.034 0.075 0.075v1.295h-4.437v-1.295zM5.019 26.013v-6.777c0-0.345-0.28-0.624-0.625-0.624s-0.625 0.279-0.625 0.624v6.777h-1.597c-0.509 0-0.922-0.413-0.922-0.921v-14.688c0-0.508 0.414-0.921 0.922-0.921h8.477c-2.212 2.068-3.597 5.008-3.597 8.265s1.385 6.197 3.597 8.265h-5.631zM24.169 26.013c-0.745 0.52-1.563 0.942-2.436 1.248-1.044 0.366-2.167 0.566-3.335 0.566s-2.29-0.2-3.335-0.566c-0.873-0.306-1.691-0.728-2.436-1.248-2.613-1.823-4.325-4.848-4.325-8.265s1.712-6.441 4.325-8.265c0.745-0.52 1.563-0.942 2.436-1.248 1.045-0.366 2.167-0.566 3.335-0.566s2.29 0.2 3.335 0.566c0.873 0.306 1.691 0.728 2.436 1.248 2.613 1.823 4.325 4.848 4.325 8.265s-1.712 6.441-4.325 8.265zM30.75 25.092c0 0.508-0.414 0.921-0.922 0.921h-3.68c2.212-2.068 3.597-5.008 3.597-8.265s-1.385-6.197-3.597-8.265h3.68c0.509 0 0.922 0.413 0.922 0.921v14.688z"></path>
<path fill="#5221e6" style="fill: var(--color1, #5221e6)" d="M18.37 10.111c-4.248 0-7.704 3.456-7.704 7.704s3.456 7.704 7.704 7.704c0.619 0 1.235-0.074 1.831-0.219 0.315-0.077 0.508-0.394 0.431-0.709s-0.394-0.508-0.709-0.431c-0.505 0.123-1.028 0.186-1.553 0.186-3.601 0-6.53-2.929-6.53-6.53s2.929-6.53 6.53-6.53c3.601 0 6.53 2.929 6.53 6.53 0 1.312-0.387 2.578-1.121 3.659-0.182 0.268-0.112 0.633 0.157 0.815s0.633 0.112 0.815-0.156c0.866-1.277 1.323-2.77 1.323-4.318 0-4.248-3.456-7.704-7.704-7.704z"></path>
<path fill="#5221e6" style="fill: var(--color1, #5221e6)" d="M4.741 11.296c-1.307 0-2.37 1.063-2.37 2.37s1.063 2.37 2.37 2.37c1.307 0 2.37-1.063 2.37-2.37s-1.063-2.37-2.37-2.37zM4.741 14.764c-0.605 0-1.097-0.492-1.097-1.097s0.492-1.097 1.097-1.097 1.097 0.492 1.097 1.097c0 0.605-0.492 1.097-1.097 1.097z"></path>
<path fill="#5221e6" style="fill: var(--color1, #5221e6)" d="M23.692 23.625c-0.008-0.037-0.019-0.075-0.034-0.111s-0.033-0.070-0.055-0.102c-0.021-0.033-0.046-0.063-0.073-0.090s-0.058-0.052-0.090-0.074c-0.033-0.021-0.067-0.040-0.102-0.055s-0.073-0.026-0.111-0.034c-0.076-0.015-0.155-0.015-0.232 0-0.038 0.008-0.075 0.019-0.111 0.034s-0.070 0.033-0.102 0.055c-0.032 0.022-0.062 0.047-0.090 0.074s-0.052 0.057-0.073 0.090c-0.021 0.032-0.040 0.066-0.055 0.102s-0.026 0.073-0.034 0.111c-0.008 0.038-0.012 0.078-0.012 0.116s0.004 0.078 0.012 0.116c0.008 0.038 0.019 0.075 0.034 0.111s0.033 0.070 0.055 0.102c0.021 0.033 0.046 0.063 0.073 0.090s0.058 0.052 0.090 0.073c0.033 0.021 0.067 0.040 0.102 0.055s0.073 0.026 0.111 0.034c0.038 0.008 0.077 0.012 0.116 0.012s0.078-0.004 0.116-0.012c0.038-0.008 0.075-0.019 0.111-0.034s0.070-0.033 0.102-0.055c0.032-0.021 0.063-0.046 0.090-0.073 0.11-0.11 0.173-0.263 0.173-0.419 0-0.038-0.004-0.078-0.011-0.116z"></path>
</symbol>
</defs>
</svg>
